# xmcd
#
# Track frame offsets: 
#        182
#        4532
#        23772
#        42840
#        58682
#        76520
#        95372
#        117215
#        137340
#        164035
#        182287
#        199882
#        225970
#
# Disc length: 3406 seconds
#
# Revision: 1
# Processed by: cddbd v1.5.2PL0 Copyright (c) Steve Scherf et al.
# Submitted via: ExactAudioCopyFreeDBPlugin 1.0
#
DISCID=8d0d4c0d
DTITLE=Somethin' For The People - Issues
DYEAR=2000
DGENRE=R&B
TTITLE0=Flossin' (Interlude)
TTITLE1=Now U Wanna
TTITLE2=Where U At
TTITLE3=Last Call
TTITLE4=Come Clean
TTITLE5=Ooh Wee
TTITLE6=You
TTITLE7=Bitch With No Man
TTITLE8=Act Like You Want It
TTITLE9=Can We Make Love
TTITLE10=Things Must Change
TTITLE11=I Apologize
TTITLE12=Take It Off
EXTD=Artist: Somethin' For The People  \nAlbum Name: Issues\nRelease D
EXTD=ate: Jul 18, 2000 \n
EXTT0=
EXTT1=
EXTT2=
EXTT3=
EXTT4=
EXTT5=
EXTT6=
EXTT7=
EXTT8=
EXTT9=
EXTT10=
EXTT11=
EXTT12=
PLAYORDER=
